<mxfile host="app.diagrams.net" agent="Mozilla/5.0 (Windows NT 10.0; Win64; x64) AppleWebKit/537.36 (KHTML, like Gecko) Chrome/133.0.0.0 Safari/537.36" version="26.0.11">
  <diagram name="Pagină-1" id="5R6YYuuOH3abn5sQgH4D">
    <mxGraphModel grid="1" page="1" gridSize="10" guides="1" tooltips="1" connect="1" arrows="1" fold="1" pageScale="1" pageWidth="827" pageHeight="1169" math="0" shadow="0">
      <root>
        <mxCell id="0" />
        <mxCell id="1" parent="0" />
        <mxCell id="YXu3xhH0jT2itaCfLoPg-1" value="&lt;div&gt;ENTITATE&lt;/div&gt;Casa de bilete" style="html=1;whiteSpace=wrap;" vertex="1" parent="1">
          <mxGeometry x="590" y="180" width="300" height="104" as="geometry" />
        </mxCell>
        <mxCell id="YXu3xhH0jT2itaCfLoPg-2" value="&lt;font style=&quot;font-size: 14px;&quot;&gt;Teatrul Nottara&lt;/font&gt;" style="html=1;whiteSpace=wrap;" vertex="1" parent="1">
          <mxGeometry x="310" y="-490" width="930" height="70" as="geometry" />
        </mxCell>
        <mxCell id="YXu3xhH0jT2itaCfLoPg-5" value="BLT.ro" style="html=1;whiteSpace=wrap;" vertex="1" parent="1">
          <mxGeometry x="980" y="335" width="110" height="50" as="geometry" />
        </mxCell>
        <mxCell id="YXu3xhH0jT2itaCfLoPg-14" value="&lt;a style=&quot;box-sizing: border-box; text-decoration-line: none; font-family: AktivGrotesk, Georgia, serif; font-weight: 700; letter-spacing: 7px; text-align: start; text-transform: uppercase; background-color: rgb(225, 230, 236);&quot; href=&quot;https://nottara.ro/spectacol/vizitatorul/&quot;&gt;&lt;font style=&quot;font-size: 10px;&quot;&gt;Vizitatorul&lt;/font&gt;&lt;/a&gt;" style="html=1;whiteSpace=wrap;" vertex="1" parent="1">
          <mxGeometry x="856.5" y="-30" width="217" height="50" as="geometry" />
        </mxCell>
        <mxCell id="YXu3xhH0jT2itaCfLoPg-19" value="&lt;a style=&quot;box-sizing: border-box; text-decoration-line: none; font-family: AktivGrotesk, Georgia, serif; font-weight: 700; letter-spacing: 7px; text-align: start; text-transform: uppercase; background-color: rgb(225, 230, 236);&quot; href=&quot;https://nottara.ro/spectacol/badaranii/&quot;&gt;&lt;font style=&quot;font-size: 10px;&quot;&gt;Bădăranii&lt;/font&gt;&lt;/a&gt;" style="html=1;whiteSpace=wrap;" vertex="1" parent="1">
          <mxGeometry x="194" y="-30" width="246" height="50" as="geometry" />
        </mxCell>
        <mxCell id="YXu3xhH0jT2itaCfLoPg-32" value="&lt;b&gt;&lt;font style=&quot;font-size: 18px;&quot;&gt;CASA DE BILETE TEATRUL NOTTARA&lt;/font&gt;&lt;/b&gt;&amp;nbsp;" style="text;html=1;align=center;verticalAlign=middle;whiteSpace=wrap;rounded=0;" vertex="1" parent="1">
          <mxGeometry x="510" y="-599" width="460" height="30" as="geometry" />
        </mxCell>
        <mxCell id="YXu3xhH0jT2itaCfLoPg-45" value="Spectator" style="html=1;whiteSpace=wrap;" vertex="1" parent="1">
          <mxGeometry x="580" y="570" width="390" height="50" as="geometry" />
        </mxCell>
        <mxCell id="YXu3xhH0jT2itaCfLoPg-47" value="485 locuri" style="shape=parallelogram;html=1;strokeWidth=2;perimeter=parallelogramPerimeter;whiteSpace=wrap;rounded=1;arcSize=0;size=0.23;" vertex="1" parent="1">
          <mxGeometry x="160" y="-220" width="90" height="40" as="geometry" />
        </mxCell>
        <mxCell id="YXu3xhH0jT2itaCfLoPg-220" style="edgeStyle=orthogonalEdgeStyle;rounded=0;orthogonalLoop=1;jettySize=auto;html=1;" edge="1" parent="1" source="YXu3xhH0jT2itaCfLoPg-52" target="YXu3xhH0jT2itaCfLoPg-19">
          <mxGeometry relative="1" as="geometry" />
        </mxCell>
        <mxCell id="YXu3xhH0jT2itaCfLoPg-52" value="Sala Horia lovinescu" style="html=1;whiteSpace=wrap;movable=1;resizable=1;rotatable=1;deletable=1;editable=1;locked=0;connectable=1;" vertex="1" parent="1">
          <mxGeometry x="380" y="-250" width="210" height="120" as="geometry" />
        </mxCell>
        <mxCell id="YXu3xhH0jT2itaCfLoPg-214" style="edgeStyle=orthogonalEdgeStyle;rounded=0;orthogonalLoop=1;jettySize=auto;html=1;entryX=0.5;entryY=0;entryDx=0;entryDy=0;" edge="1" parent="1" source="YXu3xhH0jT2itaCfLoPg-55" target="YXu3xhH0jT2itaCfLoPg-14">
          <mxGeometry relative="1" as="geometry" />
        </mxCell>
        <mxCell id="YXu3xhH0jT2itaCfLoPg-55" value="Sala George Constantin" style="html=1;whiteSpace=wrap;" vertex="1" parent="1">
          <mxGeometry x="827" y="-250" width="190" height="120" as="geometry" />
        </mxCell>
        <mxCell id="YXu3xhH0jT2itaCfLoPg-59" style="edgeStyle=orthogonalEdgeStyle;rounded=0;orthogonalLoop=1;jettySize=auto;html=1;exitX=1;exitY=0.5;exitDx=0;exitDy=0;entryX=0;entryY=0.5;entryDx=0;entryDy=0;" edge="1" parent="1" source="YXu3xhH0jT2itaCfLoPg-55" target="YXu3xhH0jT2itaCfLoPg-58">
          <mxGeometry relative="1" as="geometry" />
        </mxCell>
        <mxCell id="YXu3xhH0jT2itaCfLoPg-58" value="99 locuri" style="shape=parallelogram;html=1;strokeWidth=2;perimeter=parallelogramPerimeter;whiteSpace=wrap;rounded=1;arcSize=0;size=0.23;" vertex="1" parent="1">
          <mxGeometry x="1130" y="-210" width="90" height="40" as="geometry" />
        </mxCell>
        <mxCell id="YXu3xhH0jT2itaCfLoPg-83" value="Agentia de bilete" style="html=1;whiteSpace=wrap;" vertex="1" parent="1">
          <mxGeometry x="630" y="340" width="170" height="50" as="geometry" />
        </mxCell>
        <mxCell id="YXu3xhH0jT2itaCfLoPg-108" style="edgeStyle=orthogonalEdgeStyle;rounded=0;orthogonalLoop=1;jettySize=auto;html=1;" edge="1" parent="1" source="YXu3xhH0jT2itaCfLoPg-84" target="YXu3xhH0jT2itaCfLoPg-106">
          <mxGeometry relative="1" as="geometry" />
        </mxCell>
        <mxCell id="YXu3xhH0jT2itaCfLoPg-84" value="MyStage.ro" style="html=1;whiteSpace=wrap;" vertex="1" parent="1">
          <mxGeometry x="390" y="330" width="110" height="50" as="geometry" />
        </mxCell>
        <mxCell id="YXu3xhH0jT2itaCfLoPg-85" value="Preț Bilet" style="swimlane;fontStyle=0;childLayout=stackLayout;horizontal=1;startSize=20;fillColor=none;horizontalStack=0;resizeParent=1;resizeParentMax=0;resizeLast=0;collapsible=1;marginBottom=0;whiteSpace=wrap;html=1;" vertex="1" collapsed="1" parent="1">
          <mxGeometry x="360" y="40" width="90" height="30" as="geometry">
            <mxRectangle x="570" y="30" width="160" height="96" as="alternateBounds" />
          </mxGeometry>
        </mxCell>
        <mxCell id="YXu3xhH0jT2itaCfLoPg-86" value="+ Categoria A: 70.2 RON" style="text;strokeColor=none;fillColor=none;align=left;verticalAlign=top;spacingLeft=4;spacingRight=4;overflow=hidden;rotatable=0;points=[[0,0.5],[1,0.5]];portConstraint=eastwest;whiteSpace=wrap;html=1;" vertex="1" parent="YXu3xhH0jT2itaCfLoPg-85">
          <mxGeometry y="20" width="160" height="24" as="geometry" />
        </mxCell>
        <mxCell id="YXu3xhH0jT2itaCfLoPg-87" value="+ Categoria B: 47.52 RON" style="text;strokeColor=none;fillColor=none;align=left;verticalAlign=top;spacingLeft=4;spacingRight=4;overflow=hidden;rotatable=0;points=[[0,0.5],[1,0.5]];portConstraint=eastwest;whiteSpace=wrap;html=1;" vertex="1" parent="YXu3xhH0jT2itaCfLoPg-85">
          <mxGeometry y="44" width="160" height="26" as="geometry" />
        </mxCell>
        <mxCell id="YXu3xhH0jT2itaCfLoPg-88" value="+ Categoria C: 37.8 RON" style="text;strokeColor=none;fillColor=none;align=left;verticalAlign=top;spacingLeft=4;spacingRight=4;overflow=hidden;rotatable=0;points=[[0,0.5],[1,0.5]];portConstraint=eastwest;whiteSpace=wrap;html=1;" vertex="1" parent="YXu3xhH0jT2itaCfLoPg-85">
          <mxGeometry y="70" width="160" height="26" as="geometry" />
        </mxCell>
        <mxCell id="YXu3xhH0jT2itaCfLoPg-98" value="Preț Bilet" style="swimlane;fontStyle=0;childLayout=stackLayout;horizontal=1;startSize=26;fillColor=none;horizontalStack=0;resizeParent=1;resizeParentMax=0;resizeLast=0;collapsible=1;marginBottom=0;whiteSpace=wrap;html=1;" vertex="1" collapsed="1" parent="1">
          <mxGeometry x="1030" y="40" width="90" height="30" as="geometry">
            <mxRectangle x="835" y="20" width="150" height="60" as="alternateBounds" />
          </mxGeometry>
        </mxCell>
        <mxCell id="YXu3xhH0jT2itaCfLoPg-99" value="+ Categoria A: 70.2 RON" style="text;strokeColor=none;fillColor=none;align=left;verticalAlign=top;spacingLeft=4;spacingRight=4;overflow=hidden;rotatable=0;points=[[0,0.5],[1,0.5]];portConstraint=eastwest;whiteSpace=wrap;html=1;" vertex="1" parent="YXu3xhH0jT2itaCfLoPg-98">
          <mxGeometry y="26" width="150" height="34" as="geometry" />
        </mxCell>
        <mxCell id="YXu3xhH0jT2itaCfLoPg-106" value="Comision: 11%RON/Bilet" style="shape=parallelogram;html=1;strokeWidth=2;perimeter=parallelogramPerimeter;whiteSpace=wrap;rounded=1;arcSize=12;size=0.23;" vertex="1" parent="1">
          <mxGeometry x="160" y="340" width="200" height="40" as="geometry" />
        </mxCell>
        <mxCell id="YXu3xhH0jT2itaCfLoPg-117" value="Cerere Refund" style="html=1;verticalAlign=bottom;endArrow=open;dashed=1;endSize=8;curved=0;rounded=0;exitX=0.306;exitY=0.008;exitDx=0;exitDy=0;exitPerimeter=0;entryX=0.156;entryY=1.096;entryDx=0;entryDy=0;entryPerimeter=0;" edge="1" parent="1" source="YXu3xhH0jT2itaCfLoPg-45" target="YXu3xhH0jT2itaCfLoPg-84">
          <mxGeometry relative="1" as="geometry">
            <mxPoint x="730" y="480" as="sourcePoint" />
            <mxPoint x="650" y="480" as="targetPoint" />
          </mxGeometry>
        </mxCell>
        <mxCell id="YXu3xhH0jT2itaCfLoPg-119" value="Cerere Refund" style="html=1;verticalAlign=bottom;endArrow=open;dashed=1;endSize=8;curved=0;rounded=0;entryX=1;entryY=1;entryDx=0;entryDy=0;exitX=0.657;exitY=0.008;exitDx=0;exitDy=0;exitPerimeter=0;" edge="1" parent="1" source="YXu3xhH0jT2itaCfLoPg-45" target="YXu3xhH0jT2itaCfLoPg-5">
          <mxGeometry relative="1" as="geometry">
            <mxPoint x="730" y="480" as="sourcePoint" />
            <mxPoint x="650" y="480" as="targetPoint" />
          </mxGeometry>
        </mxCell>
        <mxCell id="YXu3xhH0jT2itaCfLoPg-120" value="Cerere Refund" style="html=1;verticalAlign=bottom;endArrow=open;dashed=1;endSize=8;curved=0;rounded=0;entryX=0.39;entryY=0.056;entryDx=0;entryDy=0;entryPerimeter=0;exitX=0.39;exitY=0.056;exitDx=0;exitDy=0;exitPerimeter=0;" edge="1" parent="1" source="YXu3xhH0jT2itaCfLoPg-45">
          <mxGeometry relative="1" as="geometry">
            <mxPoint x="650" y="480" as="sourcePoint" />
            <mxPoint x="700" y="380" as="targetPoint" />
          </mxGeometry>
        </mxCell>
        <mxCell id="YXu3xhH0jT2itaCfLoPg-129" value="Tip de Plata/Refund" style="swimlane;fontStyle=1;align=center;verticalAlign=top;childLayout=stackLayout;horizontal=1;startSize=26;horizontalStack=0;resizeParent=1;resizeParentMax=0;resizeLast=0;collapsible=1;marginBottom=0;whiteSpace=wrap;html=1;" vertex="1" collapsed="1" parent="1">
          <mxGeometry x="280" y="400" width="130" height="30" as="geometry">
            <mxRectangle x="230" y="520" width="160" height="60" as="alternateBounds" />
          </mxGeometry>
        </mxCell>
        <mxCell id="YXu3xhH0jT2itaCfLoPg-130" value="Online Card" style="text;strokeColor=none;fillColor=none;align=left;verticalAlign=top;spacingLeft=4;spacingRight=4;overflow=hidden;rotatable=0;points=[[0,0.5],[1,0.5]];portConstraint=eastwest;whiteSpace=wrap;html=1;" vertex="1" parent="YXu3xhH0jT2itaCfLoPg-129">
          <mxGeometry y="26" width="160" height="26" as="geometry" />
        </mxCell>
        <mxCell id="YXu3xhH0jT2itaCfLoPg-131" value="" style="line;strokeWidth=1;fillColor=none;align=left;verticalAlign=middle;spacingTop=-1;spacingLeft=3;spacingRight=3;rotatable=0;labelPosition=right;points=[];portConstraint=eastwest;strokeColor=inherit;" vertex="1" parent="YXu3xhH0jT2itaCfLoPg-129">
          <mxGeometry y="52" width="160" height="8" as="geometry" />
        </mxCell>
        <mxCell id="YXu3xhH0jT2itaCfLoPg-133" value="Tip de Plata/Refund" style="swimlane;fontStyle=1;align=center;verticalAlign=top;childLayout=stackLayout;horizontal=1;startSize=26;horizontalStack=0;resizeParent=1;resizeParentMax=0;resizeLast=0;collapsible=1;marginBottom=0;whiteSpace=wrap;html=1;" vertex="1" collapsed="1" parent="1">
          <mxGeometry x="830" y="400" width="130" height="30" as="geometry">
            <mxRectangle x="830" y="400" width="160" height="60" as="alternateBounds" />
          </mxGeometry>
        </mxCell>
        <mxCell id="YXu3xhH0jT2itaCfLoPg-134" value="Online Card" style="text;strokeColor=none;fillColor=none;align=left;verticalAlign=top;spacingLeft=4;spacingRight=4;overflow=hidden;rotatable=0;points=[[0,0.5],[1,0.5]];portConstraint=eastwest;whiteSpace=wrap;html=1;" vertex="1" parent="YXu3xhH0jT2itaCfLoPg-133">
          <mxGeometry y="26" width="160" height="26" as="geometry" />
        </mxCell>
        <mxCell id="YXu3xhH0jT2itaCfLoPg-135" value="" style="line;strokeWidth=1;fillColor=none;align=left;verticalAlign=middle;spacingTop=-1;spacingLeft=3;spacingRight=3;rotatable=0;labelPosition=right;points=[];portConstraint=eastwest;strokeColor=inherit;" vertex="1" parent="YXu3xhH0jT2itaCfLoPg-133">
          <mxGeometry y="52" width="160" height="8" as="geometry" />
        </mxCell>
        <mxCell id="YXu3xhH0jT2itaCfLoPg-136" value="Tip de Plata/Refund" style="swimlane;fontStyle=1;align=center;verticalAlign=top;childLayout=stackLayout;horizontal=1;startSize=26;horizontalStack=0;resizeParent=1;resizeParentMax=0;resizeLast=0;collapsible=1;marginBottom=0;whiteSpace=wrap;html=1;" vertex="1" collapsed="1" parent="1">
          <mxGeometry x="560" y="400" width="113.5" height="30" as="geometry">
            <mxRectangle x="560" y="400" width="160" height="88" as="alternateBounds" />
          </mxGeometry>
        </mxCell>
        <mxCell id="YXu3xhH0jT2itaCfLoPg-137" value="Online Card&lt;div&gt;Onsite Card&lt;/div&gt;&lt;div&gt;Onsite Cash&lt;/div&gt;" style="text;strokeColor=none;fillColor=none;align=left;verticalAlign=top;spacingLeft=4;spacingRight=4;overflow=hidden;rotatable=0;points=[[0,0.5],[1,0.5]];portConstraint=eastwest;whiteSpace=wrap;html=1;" vertex="1" parent="YXu3xhH0jT2itaCfLoPg-136">
          <mxGeometry y="26" width="160" height="54" as="geometry" />
        </mxCell>
        <mxCell id="YXu3xhH0jT2itaCfLoPg-138" value="" style="line;strokeWidth=1;fillColor=none;align=left;verticalAlign=middle;spacingTop=-1;spacingLeft=3;spacingRight=3;rotatable=0;labelPosition=right;points=[];portConstraint=eastwest;strokeColor=inherit;" vertex="1" parent="YXu3xhH0jT2itaCfLoPg-136">
          <mxGeometry y="80" width="160" height="8" as="geometry" />
        </mxCell>
        <mxCell id="YXu3xhH0jT2itaCfLoPg-144" value="" style="endArrow=block;dashed=1;endFill=0;endSize=12;html=1;rounded=0;exitX=0.364;exitY=1;exitDx=0;exitDy=0;exitPerimeter=0;entryX=0.5;entryY=0;entryDx=0;entryDy=0;" edge="1" parent="1" source="YXu3xhH0jT2itaCfLoPg-84" target="YXu3xhH0jT2itaCfLoPg-129">
          <mxGeometry width="160" relative="1" as="geometry">
            <mxPoint x="610" y="480" as="sourcePoint" />
            <mxPoint x="770" y="480" as="targetPoint" />
          </mxGeometry>
        </mxCell>
        <mxCell id="YXu3xhH0jT2itaCfLoPg-145" value="" style="endArrow=block;dashed=1;endFill=0;endSize=12;html=1;rounded=0;exitX=0.426;exitY=1.08;exitDx=0;exitDy=0;exitPerimeter=0;entryX=0.444;entryY=0.08;entryDx=0;entryDy=0;entryPerimeter=0;" edge="1" parent="1" source="YXu3xhH0jT2itaCfLoPg-83" target="YXu3xhH0jT2itaCfLoPg-136">
          <mxGeometry width="160" relative="1" as="geometry">
            <mxPoint x="610" y="480" as="sourcePoint" />
            <mxPoint x="770" y="480" as="targetPoint" />
          </mxGeometry>
        </mxCell>
        <mxCell id="YXu3xhH0jT2itaCfLoPg-146" value="" style="endArrow=block;dashed=1;endFill=0;endSize=12;html=1;rounded=0;exitX=0.349;exitY=0.996;exitDx=0;exitDy=0;exitPerimeter=0;entryX=0.686;entryY=0.133;entryDx=0;entryDy=0;entryPerimeter=0;" edge="1" parent="1" source="YXu3xhH0jT2itaCfLoPg-5" target="YXu3xhH0jT2itaCfLoPg-133">
          <mxGeometry width="160" relative="1" as="geometry">
            <mxPoint x="610" y="480" as="sourcePoint" />
            <mxPoint x="770" y="480" as="targetPoint" />
          </mxGeometry>
        </mxCell>
        <mxCell id="YXu3xhH0jT2itaCfLoPg-162" value="&lt;span style=&quot;font-weight: normal;&quot;&gt;Dată Spectacol&lt;/span&gt;" style="swimlane;fontStyle=1;align=center;verticalAlign=top;childLayout=stackLayout;horizontal=1;startSize=10;horizontalStack=0;resizeParent=1;resizeParentMax=0;resizeLast=0;collapsible=1;marginBottom=0;whiteSpace=wrap;html=1;" vertex="1" collapsed="1" parent="1">
          <mxGeometry x="210" y="40" width="120" height="30" as="geometry">
            <mxRectangle x="430" y="30" width="160" height="204" as="alternateBounds" />
          </mxGeometry>
        </mxCell>
        <mxCell id="YXu3xhH0jT2itaCfLoPg-163" value="16 Februarie" style="text;strokeColor=none;fillColor=none;align=left;verticalAlign=top;spacingLeft=4;spacingRight=4;overflow=hidden;rotatable=0;points=[[0,0.5],[1,0.5]];portConstraint=eastwest;whiteSpace=wrap;html=1;" vertex="1" parent="YXu3xhH0jT2itaCfLoPg-162">
          <mxGeometry y="10" width="160" height="26" as="geometry" />
        </mxCell>
        <mxCell id="YXu3xhH0jT2itaCfLoPg-164" value="" style="line;strokeWidth=1;fillColor=none;align=left;verticalAlign=middle;spacingTop=-1;spacingLeft=3;spacingRight=3;rotatable=0;labelPosition=right;points=[];portConstraint=eastwest;strokeColor=inherit;" vertex="1" parent="YXu3xhH0jT2itaCfLoPg-162">
          <mxGeometry y="36" width="160" height="8" as="geometry" />
        </mxCell>
        <mxCell id="YXu3xhH0jT2itaCfLoPg-165" value="22 Februarie&lt;div&gt;&lt;br&gt;&lt;/div&gt;&lt;div&gt;23 Febriarie&lt;/div&gt;&lt;div&gt;&lt;br&gt;&lt;/div&gt;&lt;div&gt;05 Martie&lt;/div&gt;&lt;div&gt;&lt;br&gt;&lt;/div&gt;&lt;div&gt;22 Martie&lt;/div&gt;&lt;div&gt;&lt;br&gt;&lt;/div&gt;&lt;div&gt;23 Martie&lt;/div&gt;" style="text;strokeColor=none;fillColor=none;align=left;verticalAlign=top;spacingLeft=4;spacingRight=4;overflow=hidden;rotatable=0;points=[[0,0.5],[1,0.5]];portConstraint=eastwest;whiteSpace=wrap;html=1;" vertex="1" parent="YXu3xhH0jT2itaCfLoPg-162">
          <mxGeometry y="44" width="160" height="160" as="geometry" />
        </mxCell>
        <mxCell id="YXu3xhH0jT2itaCfLoPg-166" value="&lt;span style=&quot;font-weight: normal;&quot;&gt;Dată Spectacol&lt;/span&gt;" style="swimlane;fontStyle=1;align=center;verticalAlign=top;childLayout=stackLayout;horizontal=1;startSize=26;horizontalStack=0;resizeParent=1;resizeParentMax=0;resizeLast=0;collapsible=1;marginBottom=0;whiteSpace=wrap;html=1;" vertex="1" collapsed="1" parent="1">
          <mxGeometry x="700" y="110" width="120" height="30" as="geometry">
            <mxRectangle x="695" y="20" width="160" height="86" as="alternateBounds" />
          </mxGeometry>
        </mxCell>
        <mxCell id="YXu3xhH0jT2itaCfLoPg-167" value="15 Februarie" style="text;strokeColor=none;fillColor=none;align=left;verticalAlign=top;spacingLeft=4;spacingRight=4;overflow=hidden;rotatable=0;points=[[0,0.5],[1,0.5]];portConstraint=eastwest;whiteSpace=wrap;html=1;" vertex="1" parent="YXu3xhH0jT2itaCfLoPg-166">
          <mxGeometry y="26" width="160" height="26" as="geometry" />
        </mxCell>
        <mxCell id="YXu3xhH0jT2itaCfLoPg-168" value="" style="line;strokeWidth=1;fillColor=none;align=left;verticalAlign=middle;spacingTop=-1;spacingLeft=3;spacingRight=3;rotatable=0;labelPosition=right;points=[];portConstraint=eastwest;strokeColor=inherit;" vertex="1" parent="YXu3xhH0jT2itaCfLoPg-166">
          <mxGeometry y="52" width="160" height="8" as="geometry" />
        </mxCell>
        <mxCell id="YXu3xhH0jT2itaCfLoPg-169" value="9 Martie" style="text;strokeColor=none;fillColor=none;align=left;verticalAlign=top;spacingLeft=4;spacingRight=4;overflow=hidden;rotatable=0;points=[[0,0.5],[1,0.5]];portConstraint=eastwest;whiteSpace=wrap;html=1;" vertex="1" parent="YXu3xhH0jT2itaCfLoPg-166">
          <mxGeometry y="60" width="160" height="26" as="geometry" />
        </mxCell>
        <mxCell id="YXu3xhH0jT2itaCfLoPg-175" value="" style="endArrow=block;dashed=1;endFill=0;endSize=12;html=1;rounded=0;exitX=0.472;exitY=1;exitDx=0;exitDy=0;exitPerimeter=0;entryX=0.413;entryY=0.03;entryDx=0;entryDy=0;entryPerimeter=0;" edge="1" parent="1" source="YXu3xhH0jT2itaCfLoPg-19" target="YXu3xhH0jT2itaCfLoPg-85">
          <mxGeometry width="160" relative="1" as="geometry">
            <mxPoint x="530" y="220" as="sourcePoint" />
            <mxPoint x="530" y="20" as="targetPoint" />
          </mxGeometry>
        </mxCell>
        <mxCell id="YXu3xhH0jT2itaCfLoPg-176" value="" style="endArrow=block;dashed=1;endFill=0;endSize=12;html=1;rounded=0;exitX=0.5;exitY=1;exitDx=0;exitDy=0;" edge="1" parent="1" source="YXu3xhH0jT2itaCfLoPg-14" target="YXu3xhH0jT2itaCfLoPg-98">
          <mxGeometry width="160" relative="1" as="geometry">
            <mxPoint x="530" y="220" as="sourcePoint" />
            <mxPoint x="690" y="220" as="targetPoint" />
          </mxGeometry>
        </mxCell>
        <mxCell id="YXu3xhH0jT2itaCfLoPg-185" value="" style="endArrow=block;dashed=1;endFill=0;endSize=12;html=1;rounded=0;exitX=0.25;exitY=1;exitDx=0;exitDy=0;entryX=0.75;entryY=0;entryDx=0;entryDy=0;" edge="1" parent="1" source="YXu3xhH0jT2itaCfLoPg-14" target="YXu3xhH0jT2itaCfLoPg-166">
          <mxGeometry width="160" relative="1" as="geometry">
            <mxPoint x="620" y="270" as="sourcePoint" />
            <mxPoint x="780" y="270" as="targetPoint" />
          </mxGeometry>
        </mxCell>
        <mxCell id="YXu3xhH0jT2itaCfLoPg-189" value="Achizitie Bilet" style="endArrow=block;endFill=1;html=1;edgeStyle=orthogonalEdgeStyle;align=left;verticalAlign=top;rounded=0;entryX=0.399;entryY=0.94;entryDx=0;entryDy=0;entryPerimeter=0;exitX=1;exitY=0.5;exitDx=0;exitDy=0;" edge="1" parent="1" source="YXu3xhH0jT2itaCfLoPg-45" target="YXu3xhH0jT2itaCfLoPg-5">
          <mxGeometry x="-0.0504" relative="1" as="geometry">
            <mxPoint x="790" y="590" as="sourcePoint" />
            <mxPoint x="1280" y="250" as="targetPoint" />
            <mxPoint x="-1" as="offset" />
          </mxGeometry>
        </mxCell>
        <mxCell id="YXu3xhH0jT2itaCfLoPg-190" value="1" style="edgeLabel;resizable=0;html=1;align=left;verticalAlign=bottom;" connectable="0" vertex="1" parent="YXu3xhH0jT2itaCfLoPg-189">
          <mxGeometry x="-1" relative="1" as="geometry" />
        </mxCell>
        <mxCell id="YXu3xhH0jT2itaCfLoPg-194" value="Achiziție Bilet" style="endArrow=block;endFill=1;html=1;edgeStyle=orthogonalEdgeStyle;align=left;verticalAlign=top;rounded=0;entryX=0.593;entryY=1.04;entryDx=0;entryDy=0;entryPerimeter=0;exitX=0;exitY=0.5;exitDx=0;exitDy=0;" edge="1" parent="1" source="YXu3xhH0jT2itaCfLoPg-45" target="YXu3xhH0jT2itaCfLoPg-84">
          <mxGeometry x="-0.1591" y="-10" relative="1" as="geometry">
            <mxPoint x="1241" y="270" as="sourcePoint" />
            <mxPoint x="1401" y="270" as="targetPoint" />
            <Array as="points">
              <mxPoint x="580" y="615" />
              <mxPoint x="580" y="560" />
              <mxPoint x="455" y="560" />
            </Array>
            <mxPoint as="offset" />
          </mxGeometry>
        </mxCell>
        <mxCell id="YXu3xhH0jT2itaCfLoPg-195" value="1" style="edgeLabel;resizable=0;html=1;align=left;verticalAlign=bottom;" connectable="0" vertex="1" parent="YXu3xhH0jT2itaCfLoPg-194">
          <mxGeometry x="-1" relative="1" as="geometry" />
        </mxCell>
        <mxCell id="YXu3xhH0jT2itaCfLoPg-196" value="Achizitie Bilet" style="endArrow=block;endFill=1;html=1;edgeStyle=orthogonalEdgeStyle;align=left;verticalAlign=top;rounded=0;exitX=0.5;exitY=0;exitDx=0;exitDy=0;entryX=0.75;entryY=1;entryDx=0;entryDy=0;" edge="1" parent="1" source="YXu3xhH0jT2itaCfLoPg-45" target="YXu3xhH0jT2itaCfLoPg-83">
          <mxGeometry x="0.1253" relative="1" as="geometry">
            <mxPoint x="800" y="600" as="sourcePoint" />
            <mxPoint x="730" y="400" as="targetPoint" />
            <mxPoint as="offset" />
          </mxGeometry>
        </mxCell>
        <mxCell id="YXu3xhH0jT2itaCfLoPg-197" value="1" style="edgeLabel;resizable=0;html=1;align=left;verticalAlign=bottom;" connectable="0" vertex="1" parent="YXu3xhH0jT2itaCfLoPg-196">
          <mxGeometry x="-1" relative="1" as="geometry" />
        </mxCell>
        <mxCell id="YXu3xhH0jT2itaCfLoPg-198" value="Rezervare Loc/Dată" style="endArrow=block;endFill=1;html=1;edgeStyle=orthogonalEdgeStyle;align=left;verticalAlign=top;rounded=0;entryX=0;entryY=0.75;entryDx=0;entryDy=0;" edge="1" parent="1" source="YXu3xhH0jT2itaCfLoPg-1" target="YXu3xhH0jT2itaCfLoPg-47">
          <mxGeometry x="0.1246" relative="1" as="geometry">
            <mxPoint x="1190" y="270" as="sourcePoint" />
            <mxPoint x="1350" y="270" as="targetPoint" />
            <Array as="points">
              <mxPoint x="10" y="270" />
              <mxPoint x="10" y="-191" />
            </Array>
            <mxPoint as="offset" />
          </mxGeometry>
        </mxCell>
        <mxCell id="YXu3xhH0jT2itaCfLoPg-199" value="1" style="edgeLabel;resizable=0;html=1;align=left;verticalAlign=bottom;" connectable="0" vertex="1" parent="YXu3xhH0jT2itaCfLoPg-198">
          <mxGeometry x="-1" relative="1" as="geometry" />
        </mxCell>
        <mxCell id="YXu3xhH0jT2itaCfLoPg-205" value="Rezervare Loc/Dată" style="endArrow=block;endFill=1;html=1;edgeStyle=orthogonalEdgeStyle;align=left;verticalAlign=top;rounded=0;entryX=1;entryY=0.75;entryDx=0;entryDy=0;" edge="1" parent="1" target="YXu3xhH0jT2itaCfLoPg-58">
          <mxGeometry x="0.1246" relative="1" as="geometry">
            <mxPoint x="870" y="270" as="sourcePoint" />
            <mxPoint x="176" y="-181" as="targetPoint" />
            <Array as="points">
              <mxPoint x="1280" y="270" />
              <mxPoint x="1280" y="-181" />
              <mxPoint x="1206" y="-181" />
            </Array>
            <mxPoint as="offset" />
          </mxGeometry>
        </mxCell>
        <mxCell id="YXu3xhH0jT2itaCfLoPg-206" value="1" style="edgeLabel;resizable=0;html=1;align=left;verticalAlign=bottom;" connectable="0" vertex="1" parent="YXu3xhH0jT2itaCfLoPg-205">
          <mxGeometry x="-1" relative="1" as="geometry" />
        </mxCell>
        <mxCell id="YXu3xhH0jT2itaCfLoPg-207" value="Spectacol" style="text;align=center;fontStyle=1;verticalAlign=middle;spacingLeft=3;spacingRight=3;strokeColor=none;rotatable=0;points=[[0,0.5],[1,0.5]];portConstraint=eastwest;html=1;" vertex="1" parent="1">
          <mxGeometry x="320" y="-36" width="80" height="26" as="geometry" />
        </mxCell>
        <mxCell id="YXu3xhH0jT2itaCfLoPg-210" value="" style="endArrow=block;dashed=1;endFill=0;endSize=12;html=1;rounded=0;exitX=0.5;exitY=1;exitDx=0;exitDy=0;entryX=0.5;entryY=0;entryDx=0;entryDy=0;" edge="1" parent="1" source="YXu3xhH0jT2itaCfLoPg-19" target="YXu3xhH0jT2itaCfLoPg-162">
          <mxGeometry width="160" relative="1" as="geometry">
            <mxPoint x="600" y="50" as="sourcePoint" />
            <mxPoint x="760" y="50" as="targetPoint" />
          </mxGeometry>
        </mxCell>
        <mxCell id="YXu3xhH0jT2itaCfLoPg-213" value="Spectacol" style="text;align=center;fontStyle=1;verticalAlign=middle;spacingLeft=3;spacingRight=3;strokeColor=none;rotatable=0;points=[[0,0.5],[1,0.5]];portConstraint=eastwest;html=1;" vertex="1" parent="1">
          <mxGeometry x="890" y="-62" width="80" height="26" as="geometry" />
        </mxCell>
        <mxCell id="YXu3xhH0jT2itaCfLoPg-215" value="Săli evenimente" style="text;align=center;fontStyle=1;verticalAlign=middle;spacingLeft=3;spacingRight=3;strokeColor=none;rotatable=0;points=[[0,0.5],[1,0.5]];portConstraint=eastwest;html=1;" vertex="1" parent="1">
          <mxGeometry x="660" y="-290" width="80" height="26" as="geometry" />
        </mxCell>
        <mxCell id="YXu3xhH0jT2itaCfLoPg-217" value="Variabile eveniment" style="html=1;verticalAlign=bottom;endArrow=block;curved=0;rounded=0;exitX=0.5;exitY=1;exitDx=0;exitDy=0;entryX=-0.01;entryY=0.392;entryDx=0;entryDy=0;entryPerimeter=0;" edge="1" parent="1" source="YXu3xhH0jT2itaCfLoPg-162" target="YXu3xhH0jT2itaCfLoPg-1">
          <mxGeometry width="80" relative="1" as="geometry">
            <mxPoint x="630" y="190" as="sourcePoint" />
            <mxPoint x="710" y="190" as="targetPoint" />
          </mxGeometry>
        </mxCell>
        <mxCell id="YXu3xhH0jT2itaCfLoPg-218" value="Variabile eveniment" style="html=1;verticalAlign=bottom;endArrow=block;curved=0;rounded=0;exitX=0.75;exitY=1;exitDx=0;exitDy=0;entryX=0.2;entryY=0;entryDx=0;entryDy=0;entryPerimeter=0;" edge="1" parent="1" source="YXu3xhH0jT2itaCfLoPg-85" target="YXu3xhH0jT2itaCfLoPg-1">
          <mxGeometry width="80" relative="1" as="geometry">
            <mxPoint x="520" y="60" as="sourcePoint" />
            <mxPoint x="837" y="211" as="targetPoint" />
          </mxGeometry>
        </mxCell>
        <mxCell id="YXu3xhH0jT2itaCfLoPg-219" value="Variabile eveniment" style="html=1;verticalAlign=bottom;endArrow=block;curved=0;rounded=0;entryX=0.679;entryY=0.01;entryDx=0;entryDy=0;entryPerimeter=0;" edge="1" parent="1" source="YXu3xhH0jT2itaCfLoPg-166" target="YXu3xhH0jT2itaCfLoPg-1">
          <mxGeometry width="80" relative="1" as="geometry">
            <mxPoint x="730" y="50" as="sourcePoint" />
            <mxPoint x="1047" y="201" as="targetPoint" />
          </mxGeometry>
        </mxCell>
        <mxCell id="YXu3xhH0jT2itaCfLoPg-221" value="Variabile eveniment" style="html=1;verticalAlign=bottom;endArrow=block;curved=0;rounded=0;exitX=0.25;exitY=1;exitDx=0;exitDy=0;entryX=1;entryY=0.25;entryDx=0;entryDy=0;" edge="1" parent="1" source="YXu3xhH0jT2itaCfLoPg-98" target="YXu3xhH0jT2itaCfLoPg-1">
          <mxGeometry width="80" relative="1" as="geometry">
            <mxPoint x="803" y="80" as="sourcePoint" />
            <mxPoint x="770" y="180" as="targetPoint" />
          </mxGeometry>
        </mxCell>
        <mxCell id="YXu3xhH0jT2itaCfLoPg-223" value="Distribuție Bilete" style="html=1;verticalAlign=bottom;endArrow=block;curved=0;rounded=0;exitX=0.018;exitY=0.877;exitDx=0;exitDy=0;entryX=0.75;entryY=0;entryDx=0;entryDy=0;exitPerimeter=0;" edge="1" parent="1" source="YXu3xhH0jT2itaCfLoPg-1" target="YXu3xhH0jT2itaCfLoPg-84">
          <mxGeometry width="80" relative="1" as="geometry">
            <mxPoint x="280" y="80" as="sourcePoint" />
            <mxPoint x="597" y="231" as="targetPoint" />
          </mxGeometry>
        </mxCell>
        <mxCell id="YXu3xhH0jT2itaCfLoPg-224" value="Distribuție Bilete" style="html=1;verticalAlign=bottom;endArrow=block;curved=0;rounded=0;exitX=0.347;exitY=1.031;exitDx=0;exitDy=0;exitPerimeter=0;entryX=0.167;entryY=0.052;entryDx=0;entryDy=0;entryPerimeter=0;" edge="1" parent="1" source="YXu3xhH0jT2itaCfLoPg-1" target="YXu3xhH0jT2itaCfLoPg-83">
          <mxGeometry width="80" relative="1" as="geometry">
            <mxPoint x="605" y="281" as="sourcePoint" />
            <mxPoint x="483" y="340" as="targetPoint" />
          </mxGeometry>
        </mxCell>
        <mxCell id="YXu3xhH0jT2itaCfLoPg-225" value="Distribuție Bilete" style="html=1;verticalAlign=bottom;endArrow=block;curved=0;rounded=0;exitX=0.913;exitY=0.984;exitDx=0;exitDy=0;exitPerimeter=0;entryX=0;entryY=0.5;entryDx=0;entryDy=0;" edge="1" parent="1" source="YXu3xhH0jT2itaCfLoPg-1" target="YXu3xhH0jT2itaCfLoPg-5">
          <mxGeometry width="80" relative="1" as="geometry">
            <mxPoint x="704" y="297" as="sourcePoint" />
            <mxPoint x="718" y="350" as="targetPoint" />
          </mxGeometry>
        </mxCell>
        <mxCell id="YXu3xhH0jT2itaCfLoPg-226" value="Rezervare Loc/Dată" style="html=1;verticalAlign=bottom;endArrow=block;curved=0;rounded=0;exitX=0.018;exitY=0.877;exitDx=0;exitDy=0;entryX=0.158;entryY=0.984;entryDx=0;entryDy=0;exitPerimeter=0;entryPerimeter=0;" edge="1" parent="1" target="YXu3xhH0jT2itaCfLoPg-1">
          <mxGeometry width="80" relative="1" as="geometry">
            <mxPoint x="500" y="359" as="sourcePoint" />
            <mxPoint x="622" y="300" as="targetPoint" />
          </mxGeometry>
        </mxCell>
        <mxCell id="YXu3xhH0jT2itaCfLoPg-227" value="Rezervare Loc/Dată" style="html=1;verticalAlign=bottom;endArrow=block;curved=0;rounded=0;entryX=0.794;entryY=1.043;entryDx=0;entryDy=0;entryPerimeter=0;" edge="1" parent="1" source="YXu3xhH0jT2itaCfLoPg-83" target="YXu3xhH0jT2itaCfLoPg-1">
          <mxGeometry width="80" relative="1" as="geometry">
            <mxPoint x="510" y="369" as="sourcePoint" />
            <mxPoint x="647" y="292" as="targetPoint" />
          </mxGeometry>
        </mxCell>
        <mxCell id="YXu3xhH0jT2itaCfLoPg-229" value="Rezervare Loc/Dată" style="html=1;verticalAlign=bottom;endArrow=block;curved=0;rounded=0;entryX=1;entryY=1;entryDx=0;entryDy=0;exitX=0.5;exitY=0;exitDx=0;exitDy=0;" edge="1" parent="1" source="YXu3xhH0jT2itaCfLoPg-5" target="YXu3xhH0jT2itaCfLoPg-1">
          <mxGeometry width="80" relative="1" as="geometry">
            <mxPoint x="762" y="350" as="sourcePoint" />
            <mxPoint x="838" y="298" as="targetPoint" />
          </mxGeometry>
        </mxCell>
        <mxCell id="YXu3xhH0jT2itaCfLoPg-230" value="Anulare Loc/Dată" style="html=1;verticalAlign=bottom;endArrow=open;dashed=1;endSize=8;curved=0;rounded=0;entryX=1.01;entryY=0.592;entryDx=0;entryDy=0;entryPerimeter=0;" edge="1" parent="1">
          <mxGeometry x="0.4881" y="-2" relative="1" as="geometry">
            <mxPoint x="1090" y="340" as="sourcePoint" />
            <mxPoint x="890" y="209.99799999999976" as="targetPoint" />
            <Array as="points">
              <mxPoint x="1090" y="340" />
            </Array>
            <mxPoint as="offset" />
          </mxGeometry>
        </mxCell>
        <mxCell id="YXu3xhH0jT2itaCfLoPg-234" value="Anulare Loc/Dată" style="html=1;verticalAlign=bottom;endArrow=open;dashed=1;endSize=8;curved=0;rounded=0;entryX=0.472;entryY=0.98;entryDx=0;entryDy=0;entryPerimeter=0;exitX=0.586;exitY=-0.006;exitDx=0;exitDy=0;exitPerimeter=0;" edge="1" parent="1" source="YXu3xhH0jT2itaCfLoPg-83" target="YXu3xhH0jT2itaCfLoPg-1">
          <mxGeometry x="0.4881" y="-2" relative="1" as="geometry">
            <mxPoint x="1100" y="350" as="sourcePoint" />
            <mxPoint x="900" y="219.99799999999976" as="targetPoint" />
            <Array as="points" />
            <mxPoint as="offset" />
          </mxGeometry>
        </mxCell>
        <mxCell id="YXu3xhH0jT2itaCfLoPg-235" value="Anulare Loc/Dată" style="html=1;verticalAlign=bottom;endArrow=open;dashed=1;endSize=8;curved=0;rounded=0;entryX=0;entryY=0.5;entryDx=0;entryDy=0;exitX=0.25;exitY=0;exitDx=0;exitDy=0;" edge="1" parent="1" source="YXu3xhH0jT2itaCfLoPg-84" target="YXu3xhH0jT2itaCfLoPg-1">
          <mxGeometry x="0.4881" y="-2" relative="1" as="geometry">
            <mxPoint x="1100" y="350" as="sourcePoint" />
            <mxPoint x="900" y="219.99799999999976" as="targetPoint" />
            <Array as="points" />
            <mxPoint as="offset" />
          </mxGeometry>
        </mxCell>
        <mxCell id="YXu3xhH0jT2itaCfLoPg-238" value="Eliberare Loc/Dată" style="endArrow=open;endSize=12;dashed=1;html=1;rounded=0;exitX=0.367;exitY=0.049;exitDx=0;exitDy=0;entryX=1;entryY=0.75;entryDx=0;entryDy=0;exitPerimeter=0;" edge="1" parent="1" source="YXu3xhH0jT2itaCfLoPg-1" target="YXu3xhH0jT2itaCfLoPg-52">
          <mxGeometry width="160" relative="1" as="geometry">
            <mxPoint x="560" y="20" as="sourcePoint" />
            <mxPoint x="720" y="20" as="targetPoint" />
          </mxGeometry>
        </mxCell>
        <mxCell id="YXu3xhH0jT2itaCfLoPg-240" value="Eliberare Loc/Dată" style="endArrow=open;endSize=12;dashed=1;html=1;rounded=0;entryX=0;entryY=0.5;entryDx=0;entryDy=0;" edge="1" parent="1" target="YXu3xhH0jT2itaCfLoPg-55">
          <mxGeometry width="160" relative="1" as="geometry">
            <mxPoint x="700" y="180" as="sourcePoint" />
            <mxPoint x="432" y="-170" as="targetPoint" />
          </mxGeometry>
        </mxCell>
        <mxCell id="YXu3xhH0jT2itaCfLoPg-241" value="c&lt;span style=&quot;color: rgba(0, 0, 0, 0); font-family: monospace; font-size: 0px; text-align: start; background-color: rgb(251, 251, 251);&quot;&gt;%3CmxGraphModel%3E%3Croot%3E%3CmxCell%20id%3D%220%22%2F%3E%3CmxCell%20id%3D%221%22%20parent%3D%220%22%2F%3E%3CmxCell%20id%3D%222%22%20value%3D%22Eliberare%20Loc%2FDat%C4%83%22%20style%3D%22endArrow%3Dopen%3BendSize%3D12%3Bdashed%3D1%3Bhtml%3D1%3Brounded%3D0%3BexitX%3D0.367%3BexitY%3D0.049%3BexitDx%3D0%3BexitDy%3D0%3BentryX%3D1%3BentryY%3D0.75%3BentryDx%3D0%3BentryDy%3D0%3BexitPerimeter%3D0%3B%22%20edge%3D%221%22%20parent%3D%221%22%3E%3CmxGeometry%20width%3D%22160%22%20relative%3D%221%22%20as%3D%22geometry%22%3E%3CmxPoint%20x%3D%22700%22%20y%3D%22185%22%20as%3D%22sourcePoint%22%2F%3E%3CmxPoint%20x%3D%22422%22%20y%3D%22-180%22%20as%3D%22targetPoint%22%2F%3E%3C%2FmxGeometry%3E%3C%2FmxCell%3E%3C%2Froot%3E%3C%2FmxGraphModel%3E&lt;/span&gt;" style="endArrow=open;endFill=1;endSize=12;html=1;rounded=0;exitX=0.474;exitY=0.965;exitDx=0;exitDy=0;exitPerimeter=0;entryX=0.427;entryY=0.026;entryDx=0;entryDy=0;entryPerimeter=0;" edge="1" parent="1" source="YXu3xhH0jT2itaCfLoPg-2" target="YXu3xhH0jT2itaCfLoPg-55">
          <mxGeometry width="160" relative="1" as="geometry">
            <mxPoint x="560" y="-130" as="sourcePoint" />
            <mxPoint x="720" y="-130" as="targetPoint" />
          </mxGeometry>
        </mxCell>
        <mxCell id="YXu3xhH0jT2itaCfLoPg-242" value="c&lt;span style=&quot;color: rgba(0, 0, 0, 0); font-family: monospace; font-size: 0px; text-align: start; background-color: rgb(251, 251, 251);&quot;&gt;%3CmxGraphModel%3E%3Croot%3E%3CmxCell%20id%3D%220%22%2F%3E%3CmxCell%20id%3D%221%22%20parent%3D%220%22%2F%3E%3CmxCell%20id%3D%222%22%20value%3D%22Eliberare%20Loc%2FDat%C4%83%22%20style%3D%22endArrow%3Dopen%3BendSize%3D12%3Bdashed%3D1%3Bhtml%3D1%3Brounded%3D0%3BexitX%3D0.367%3BexitY%3D0.049%3BexitDx%3D0%3BexitDy%3D0%3BentryX%3D1%3BentryY%3D0.75%3BentryDx%3D0%3BentryDy%3D0%3BexitPerimeter%3D0%3B%22%20edge%3D%221%22%20parent%3D%221%22%3E%3CmxGeometry%20width%3D%22160%22%20relative%3D%221%22%20as%3D%22geometry%22%3E%3CmxPoint%20x%3D%22700%22%20y%3D%22185%22%20as%3D%22sourcePoint%22%2F%3E%3CmxPoint%20x%3D%22422%22%20y%3D%22-180%22%20as%3D%22targetPoint%22%2F%3E%3C%2FmxGeometry%3E%3C%2FmxCell%3E%3C%2Froot%3E%3C%2FmxGraphModel%3E&lt;/span&gt;" style="endArrow=open;endFill=1;endSize=12;html=1;rounded=0;exitX=0.429;exitY=1;exitDx=0;exitDy=0;exitPerimeter=0;entryX=0.552;entryY=-0.005;entryDx=0;entryDy=0;entryPerimeter=0;" edge="1" parent="1" source="YXu3xhH0jT2itaCfLoPg-2" target="YXu3xhH0jT2itaCfLoPg-52">
          <mxGeometry width="160" relative="1" as="geometry">
            <mxPoint x="741" y="-362" as="sourcePoint" />
            <mxPoint x="918" y="-237" as="targetPoint" />
          </mxGeometry>
        </mxCell>
        <mxCell id="tmY5c0hbhv6YBlIGBfhU-1" style="edgeStyle=orthogonalEdgeStyle;rounded=0;orthogonalLoop=1;jettySize=auto;html=1;exitX=0.007;exitY=0.395;exitDx=0;exitDy=0;exitPerimeter=0;" edge="1" parent="1" source="YXu3xhH0jT2itaCfLoPg-52" target="YXu3xhH0jT2itaCfLoPg-47">
          <mxGeometry relative="1" as="geometry" />
        </mxCell>
      </root>
    </mxGraphModel>
  </diagram>
</mxfile>
